<?xml version="1.0" encoding="UTF-8"?>
<svg id="Camada_1" xmlns="http://www.w3.org/2000/svg" viewBox="0 0 538.21 258.38">
  <defs>
    <style>
      .cls-1, .cls-2 {
        fill: #fff;
      }

      .cls-3 {
        letter-spacing: -.01em;
      }

      .cls-2 {
        font-family: Roboto-Black, Roboto;
        font-size: 60.36px;
        font-weight: 800;
      }

      .cls-4 {
        letter-spacing: 0em;
      }
    </style>
  </defs>
  <text class="cls-2" transform="translate(260.33 140.11)"><tspan x="0" y="0">Plane </tspan><tspan x="0" y="55.33">C</tspan><tspan class="cls-3" x="39.61" y="55.33">r</tspan><tspan x="61.6" y="55.33">ash </tspan><tspan x="0" y="110.67">Visuali</tspan><tspan class="cls-4" x="186.66" y="110.67">z</tspan><tspan x="217.25" y="110.67">er</tspan></text>
  <path class="cls-1" d="M133.71,37.61c0,1.88,0,3.56,0,5.24,0,4.3.03,8.61-.02,12.91-.02,2.01-1.31,3.47-3.14,3.8-1.76.31-3.61-.67-4.18-2.38-.24-.71-.27-1.52-.27-2.28-.02-5.22-.04-10.45.02-15.67.01-1.23-.25-1.72-1.59-1.66-2.5.11-5.01.03-7.6.03-.87,4.4-1.79,8.65-2.53,12.93-1.87,10.71-3.67,21.44-5.47,32.17-.18,1.05-.17,2.12-.3,3.18-.3,2.25-2.1,3.77-4.17,3.56-2.18-.22-3.74-2.07-3.4-4.41,1.3-8.99,2.69-17.97,4.06-26.96.17-1.15.36-2.3.65-3.42.26-1.02-.03-1.55-.99-2.02-11.4-5.63-22.75-11.37-34.18-16.94-3.18-1.55-4.66-3.73-4.55-7.28.15-4.93.02-9.87.04-14.8.02-4.74,3.85-7.42,8.3-5.84,13.62,4.83,27.24,9.67,40.86,14.5,2.87,1.02,3.66,2.43,3.08,5.45-.13.7-.24,1.4-.37,2.19h8.14c0-.63,0-1.19,0-1.75,0-5.37-.02-10.74,0-16.11.01-2.67,2.1-4.49,4.51-4,1.94.39,3.09,1.88,3.1,4.14.02,5.32,0,10.64,0,15.96,0,.53,0,1.05,0,1.71h7.94c-.07-.49-.12-.96-.21-1.42-.55-2.83.26-4.32,2.92-5.31,10.47-3.89,20.94-7.77,31.41-11.66,3.4-1.26,6.79-2.55,10.2-3.78,3.96-1.43,7.9,1.12,8.01,5.34.14,5.61.09,11.22,0,16.83-.04,2.48-1.36,4.25-3.6,5.36-8.75,4.33-17.49,8.69-26.23,13.04-3.12,1.55-6.21,3.15-9.36,4.63-.95.45-1.07.95-.9,1.91,2.57,14.04,4.71,28.14,5.45,42.41.26,4.97.13,9.96.18,14.94,0,.48,0,.95,0,1.72,1.61-.86,3.01-1.82,4.55-2.38,2.9-1.06,3.84-2.92,3.69-6.02-.21-4.63.19-9.28.24-13.92.02-2.44,1.06-3.91,3.37-4.8,8.62-3.32,17.19-6.75,25.78-10.14,3.52-1.39,5.78.05,6.04,3.84.21,3.07.39,6.14.59,9.42.6-.29,1.03-.47,1.43-.68,4.13-2.22,8.25-4.46,12.38-6.68,2.94-1.58,5.23-.69,6.24,2.45,1.72,5.39,3.43,10.78,5.13,16.18.73,2.34.35,3.59-1.52,5.11-2.25,1.83-4.49,3.67-6.78,5.46-.75.59-1.07,1.21-1.06,2.19.04,6.29.05,12.58.01,18.86-.03,5.15-3.35,9.68-8.13,11.22-4.98,1.61-10.31-.13-13.39-4.4-1.34-1.85-2.04-3.94-2.21-6.21-.03-.42-.07-.83-.13-1.52-1.36,1.1-2.6,2.01-3.7,3.06-.3.29-.32.97-.32,1.47-.02,5.66.03,11.32-.03,16.98-.07,5.68-3.97,10.37-9.44,11.52-6.32,1.33-12.54-2.68-13.97-9-.1-.46-.2-.91-.35-1.6-2.53,2.05-4.91,3.92-7.21,5.9-.34.29-.39,1.04-.4,1.58-.08,10.36-2.27,20.16-7.79,29.04-2.88,4.63-6.5,8.55-11.27,11.27-9.15,5.23-19.46,3.95-27.61-3.41-6.82-6.16-10.59-14.06-12.74-22.83-1.16-4.72-1.66-9.53-1.55-14.38.02-.9-.2-1.53-.94-2.1-2.06-1.59-4.07-3.26-6.25-5.03-.2.79-.36,1.41-.52,2.04-1.47,5.58-6.99,9.4-12.6,8.73-6.04-.72-10.57-5.57-10.64-11.49-.07-5.66-.05-11.32,0-16.98.01-1.08-.28-1.82-1.16-2.43-.94-.65-1.81-1.43-2.93-2.33-.07.68-.12,1.12-.16,1.56-.52,6.53-5.94,11.42-12.36,11.15-6.4-.27-11.36-5.46-11.39-11.98-.03-6.24-.03-12.48,0-18.72,0-.97-.29-1.61-1.05-2.2-2.33-1.81-4.58-3.71-6.9-5.54-1.6-1.27-2.08-2.83-1.47-4.76,1.77-5.57,3.51-11.16,5.32-16.72.88-2.7,3.25-3.65,5.77-2.32,4.19,2.21,8.35,4.49,12.52,6.73.37.2.76.38,1.34.67.19-3.11.4-6.03.55-8.96.21-4.09,2.4-5.58,6.17-4.11,8.73,3.42,17.45,6.88,26.18,10.31,1.89.74,2.78,2.05,2.82,4.1.11,5.66.33,11.31.44,16.97.02,1.01.36,1.56,1.25,2,2.23,1.12,4.41,2.34,6.78,3.6.06-.62.12-1.03.13-1.45.06-3.24.1-6.48.16-9.72.06-3.34,1.31-4.96,3.79-4.93,2.62.03,3.94,1.77,3.88,5.15-.36,19.59-.77,39.17-1.09,58.76-.15,9.18,1.69,17.9,6.71,25.73,1.21,1.9,2.69,3.68,4.3,5.25,7.1,6.93,16.6,6.87,23.7-.05,4.68-4.56,7.38-10.22,9.11-16.41,1.3-4.64,1.89-9.38,1.81-14.2-.39-21.18-.79-42.36-1.19-63.54-.28-14.66-2.55-29.07-5.4-43.42-1.06-5.31-2.08-10.63-3.08-15.95-.17-.9-.47-1.33-1.48-1.3-2.51.07-5.02.02-7.78.02ZM217.79,91.22c-.5.23-.89.38-1.26.58-18.59,10.04-37.18,20.09-55.78,30.11-.87.47-1.23.99-1.21,2.02.21,8.56.35,17.12.53,25.68,0,.3.11.59.19,1.02.52-.4.91-.68,1.28-.98,11.41-9.2,22.81-18.4,34.21-27.6,8.09-6.53,16.19-13.05,24.26-19.6.41-.33.92-1.06.81-1.43-.93-3.25-1.99-6.45-3.04-9.78ZM99.46,150.39c.05-.79.1-1.21.11-1.64.16-8.27.28-16.53.5-24.8.03-1.26-.41-1.86-1.48-2.43-15.77-8.44-31.51-16.92-47.25-25.4-2.97-1.6-5.92-3.25-9.04-4.97-.97,3.01-1.82,5.92-2.85,8.77-.45,1.25-.21,1.93.83,2.77,17.03,13.68,34.03,27.42,51.03,41.14,2.62,2.12,5.25,4.23,8.14,6.55ZM107.07,45.26c1.03-5.24,1.97-10.23,3.01-15.18.25-1.17-.08-1.57-1.16-1.95-11.31-3.96-22.59-7.98-33.89-11.99-.38-.14-.79-.22-1.33-.37,0,4.2-.03,8.21.05,12.21,0,.41.58.95,1.02,1.17,8.85,4.45,17.72,8.85,26.58,13.27,1.85.92,3.7,1.83,5.71,2.83ZM152.54,45.37c.31-.09.46-.11.58-.17,10.77-5.35,21.54-10.7,32.28-16.1.45-.23.88-1.01.89-1.54.08-3.38.04-6.76.03-10.14,0-.5-.04-1-.07-1.66-12.37,4.6-24.53,9.11-36.78,13.66,1.03,5.35,2.04,10.6,3.08,15.96ZM175.62,104.91c6.72-3.54,13.43-7.07,20.13-10.62.25-.13.57-.48.56-.71-.12-2.67-.31-5.34-.49-8.19-6.67,2.63-13.1,5.16-19.5,7.73-.31.12-.66.62-.67.95-.05,3.56-.03,7.13-.03,10.85ZM84.13,104.89c0-3.45-.05-6.72.03-10,.03-1.14-.32-1.7-1.41-2.12-5.91-2.27-11.78-4.62-17.66-6.94-.33-.13-.7-.19-1.18-.32-.15,2.49-.26,4.85-.46,7.2-.07.86.23,1.3.97,1.69,5.04,2.65,10.06,5.35,15.09,8.04,1.53.81,3.06,1.62,4.63,2.45ZM48.16,118.83c-.05.54-.1.81-.1,1.07,0,4.2-.03,8.41,0,12.61.02,2.57,1.78,4.39,4.2,4.43,2.35.04,4.22-1.83,4.27-4.36.04-2.03.03-4.06,0-6.09,0-.4-.11-.94-.38-1.17-2.58-2.15-5.21-4.25-8-6.5ZM212.01,118.75c-2.1,1.7-3.79,3.29-5.7,4.53-2.22,1.44-3.24,3.22-2.82,5.87.18,1.13,0,2.32.05,3.47.09,2.52,1.82,4.28,4.16,4.3,2.41.02,4.24-1.77,4.29-4.34.06-3.62.02-7.25.02-10.87,0-.85,0-1.7,0-2.97ZM76.02,141.32c0,4.37,0,8.32,0,12.27,0,.28.09.57.17.85.5,1.81,2.07,3.02,3.95,3.06,1.85.04,3.78-1.1,4.06-2.86.32-2.03.19-4.13.22-6.2,0-.2-.18-.46-.35-.6-2.58-2.1-5.16-4.18-8.06-6.51ZM184,141.35c-2.84,2.29-5.43,4.36-7.99,6.46-.23.19-.42.57-.42.87-.02,1.74-.11,3.49.08,5.21.25,2.24,2.15,3.69,4.37,3.6,2.11-.09,3.88-1.69,3.94-3.89.1-3.95.03-7.91.03-12.25Z"/>
  <path class="cls-1" d="M75.75,207.59c-.67-3.3-1.29-6.37-1.92-9.44-.61-2.98-1.24-5.96-1.85-8.95-.41-2.01.15-3.53,1.65-4.42,1.61-.96,3.14-.71,4.59.38,10.79,8.09,21.59,16.18,32.38,24.28,1.93,1.45,2.33,3.73,1.05,5.48-1.32,1.8-3.65,2.09-5.65.6-7.6-5.66-15.18-11.35-22.76-17.03-.49-.37-1-.72-1.8-1.3.78,3.8,1.48,7.24,2.18,10.67.26,1.28.56,2.55.78,3.84.54,3.16-1.66,5.31-4.82,4.63-7.13-1.54-14.25-3.15-21.38-4.73-.7-.16-1.4-.3-2.5-.53.75.98,1.29,1.68,1.83,2.38,4.51,5.86,9.02,11.73,13.54,17.58,1.65,2.15,1.63,3.78-.13,5.85-2,2.35-4.01,4.68-6.2,7.22h130.45c-.25-.36-.42-.67-.65-.94-1.73-2.02-3.46-4.04-5.2-6.05-1.98-2.3-2.05-3.81-.22-6.18,4.71-6.13,9.44-12.26,14.16-18.39.29-.38.57-.76,1.08-1.45-.93.19-1.55.3-2.17.44-7.03,1.57-14.08,3.05-21.08,4.74-4.04.98-6.2-2-5.34-5.27,1.05-3.97,1.71-8.03,2.54-12.06.09-.45.14-.92.26-1.7-3.15,2.35-6.04,4.5-8.93,6.66-5.23,3.91-10.43,7.86-15.68,11.73-2.44,1.8-5.54.68-6.15-2.15-.36-1.7.34-3.01,1.69-4.02,5.42-4.06,10.83-8.12,16.25-12.19,5.26-3.94,10.53-7.89,15.79-11.83,1.9-1.42,3.35-1.61,4.94-.63,1.54.95,2.03,2.42,1.56,4.71-1.12,5.49-2.25,10.99-3.38,16.48-.09.46-.15.93-.26,1.63.95-.2,1.73-.36,2.5-.53,8.54-1.89,17.08-3.79,25.62-5.68,2.08-.46,3.61.06,4.6,1.56.95,1.44.79,3.12-.52,4.82-6.34,8.24-12.69,16.47-19.03,24.71-.32.41-.61.85-.96,1.33,2.89,3.36,5.7,6.67,8.59,9.92.33.37,1.12.46,1.7.46,12.77.03,25.54.02,38.31.02.44,0,.87,0,1.31,0,2.35.06,4.06,1.69,4.05,3.85-.01,2.18-1.68,3.72-4.1,3.77-.53.01-1.06,0-1.6,0-77.58,0-155.16,0-232.73,0-.73,0-1.45.03-2.18-.03-2.03-.15-3.5-1.71-3.54-3.72-.04-1.94,1.45-3.62,3.44-3.85.48-.05.97-.03,1.45-.03,13.88,0,27.76-.01,41.64.02,1.11,0,1.87-.29,2.6-1.16,2.34-2.83,4.75-5.61,7.2-8.35.64-.72.64-1.19.05-1.95-6.2-7.98-12.35-16-18.52-24-.35-.46-.71-.92-1.06-1.38-1.02-1.39-1.15-2.85-.28-4.34.87-1.5,2.4-2.13,4.25-1.74,3.22.68,6.42,1.43,9.63,2.14,5.99,1.33,11.99,2.66,17.98,3.98.23.05.46.07.97.15Z"/>
  <path class="cls-1" d="M145.89,168.8c-.36,5.76-1.91,11.4-6.21,15.98-5.6,5.95-13.85,6.08-19.53.2-4.79-4.95-6.4-11.14-6.39-17.83,0-2.07,1.81-3.61,3.82-3.6,1.97.01,3.6,1.46,3.72,3.53.19,3.36.6,6.66,2.28,9.65.61,1.08,1.33,2.15,2.2,3.03,2.51,2.54,5.53,2.51,8.06,0,2.56-2.54,3.61-5.78,4.18-9.22.16-.95.2-1.92.25-2.89.12-2.52,1.68-4.17,3.92-4.1,2.16.07,3.67,1.78,3.69,4.19,0,.24,0,.48,0,1.06Z"/>
  <path class="cls-1" d="M119.78,125.89c0,1.06.02,2.12,0,3.19-.06,2.25-1.73,3.93-3.83,3.9-2.09-.04-3.71-1.62-3.77-3.8-.05-2.22-.05-4.44,0-6.66.05-2.2,1.65-3.78,3.75-3.8,2.17-.02,3.78,1.58,3.85,3.85.03,1.11,0,2.22,0,3.33Z"/>
  <path class="cls-1" d="M119.77,144.17c0,1.06.03,2.12,0,3.19-.08,2.17-1.7,3.81-3.74,3.84-2.06.02-3.77-1.57-3.84-3.73-.07-2.27-.07-4.54,0-6.8.06-2.18,1.72-3.76,3.8-3.75,2.09,0,3.69,1.59,3.78,3.79.04,1.16,0,2.32,0,3.47Z"/>
  <path class="cls-1" d="M147.44,143.92c0,1.21.07,2.42-.01,3.62-.14,2.11-1.78,3.65-3.76,3.65-2.06,0-3.76-1.61-3.83-3.76-.07-2.27-.07-4.54,0-6.8.07-2.09,1.71-3.67,3.71-3.72,2.06-.05,3.75,1.51,3.89,3.68.07,1.11.01,2.22.01,3.33,0,0,0,0-.01,0Z"/>
  <path class="cls-1" d="M147.43,125.84c0,1.21.07,2.42-.02,3.62-.15,2.02-1.77,3.49-3.73,3.51-2,.02-3.74-1.51-3.82-3.59-.1-2.36-.09-4.73,0-7.09.08-2.07,1.78-3.57,3.83-3.56,1.98,0,3.59,1.46,3.74,3.49.09,1.2.02,2.41.02,3.62,0,0,0,0-.01,0Z"/>
</svg>